<?xml version="1.0" encoding="UTF-8"?>
<svg id="_图层_1" data-name="图层 1" xmlns="http://www.w3.org/2000/svg" viewBox="0 0 49.72 12.65">
  <defs>
    <style>
      .cls-1 {
        fill: #19b1c6;
        stroke-width: 0px;
      }
    </style>
  </defs>
  <path class="cls-1" d="M7.8,10.2h-1.55c.05-.2.13-.53.25-.99s.24-.95.37-1.46.29-1.15.48-1.9c-.32.48-.69,1.02-1.1,1.6s-.92,1.31-1.54,2.18c-.28,0-.53-.09-.74-.26-.22-.18-.36-.41-.42-.69-.02-.07-.05-.25-.11-.55s-.12-.64-.19-1.02-.16-.85-.26-1.42c-.05.21-.13.55-.25,1.03s-.24.98-.37,1.52-.29,1.19-.48,1.97H0c.04-.16.15-.59.32-1.31s.37-1.51.58-2.39.48-1.98.81-3.32c.22-.59.61-.89,1.17-.89h1.12c.02.08.07.34.15.78s.18.93.28,1.48.24,1.24.4,2.08l3.1-4.34h2.14c-.04.17-.16.65-.36,1.46s-.41,1.7-.65,2.69-.54,2.24-.91,3.76h-.34Z"/>
  <path class="cls-1" d="M9.36,10.2l1.48-5.99h1.93l-1.45,5.99h-1.96ZM11.32,2.29h1.93l-.36,1.41h-1.93l.36-1.41Z"/>
  <path class="cls-1" d="M17.84,10.2h-1.92l.99-3.94c.01-.1,0-.19-.06-.26-.06-.08-.14-.12-.25-.12h-1.43l-1.05,4.32h-1.92l1.45-5.95h2.35s1.32,0,1.32,0c.52,0,.94.2,1.24.61.31.4.4.87.28,1.41l-.99,3.94Z"/>
  <path class="cls-1" d="M18.69,10.2l1.48-5.99h1.93l-1.45,5.99h-1.96ZM20.65,2.29h1.93l-.36,1.41h-1.93l.36-1.41Z"/>
  <path class="cls-1" d="M23.1,3.6c.34-.87.95-1.31,1.8-1.31h4.08c.58,0,1.05.21,1.41.62.36.41.49.88.38,1.41l-.13.53c-.1.4-.22.9-.36,1.49s-.28,1.13-.4,1.63-.19.8-.23.93c-.31.87-.91,1.31-1.8,1.31h-4.05c-.59,0-1.07-.21-1.44-.62-.36-.41-.49-.88-.38-1.41.21-.86.38-1.57.52-2.14s.26-1.09.38-1.55.18-.76.21-.88ZM27.51,8.39c.12,0,.2-.06.25-.19.17-.72.32-1.31.43-1.79s.22-.9.32-1.29l.18-.73c.01-.07,0-.14-.05-.19s-.11-.08-.2-.08h-3.19c-.12,0-.21.06-.25.19,0,.02-.05.2-.13.55s-.19.76-.3,1.23-.22.9-.31,1.29-.15.63-.18.73c-.01.07,0,.14.06.19.05.05.12.08.19.08h3.19Z"/>
  <path class="cls-1" d="M31.76,3.6c.33-.87.89-1.31,1.66-1.31h.5l-1.9,7.9h-1.88l1.61-6.6Z"/>
  <path class="cls-1" d="M34.48,3.6c.31-.87.88-1.31,1.69-1.31h5.44l-.44,1.81h-4.69s-.09.02-.13.05-.08.08-.1.14l-.91,3.81c-.01.07,0,.14.05.19s.11.08.18.08h4.58c-.13.56-.28,1.16-.44,1.81h-4.65c-.61-.02-1.06-.25-1.36-.67s-.41-.87-.32-1.36l1.1-4.57Z"/>
  <path class="cls-1" d="M45.18,10.31h-2.51c-.6,0-1.08-.21-1.45-.62s-.49-.89-.39-1.44l1.11-4.63c.34-.88.95-1.32,1.81-1.32h4.11c.59,0,1.06.21,1.43.62s.49.89.38,1.44l-1.12,4.63c-.17.65-.6,1.07-1.28,1.25l.71,1.22-.49.16c-.82.23-1.47-.01-1.97-.72l-.35-.6ZM43.44,7.33h2.14l.67,1.14h.14c.12,0,.2-.06.24-.19l.93-3.87c.02-.07,0-.14-.04-.19-.05-.06-.12-.09-.21-.09h-3.21c-.12,0-.2.06-.25.19l-.93,3.87c-.01.07,0,.13.06.19.05.05.12.08.19.08h.92l-.67-1.14Z"/>
</svg>